<?xml version="1.0" standalone="no"?>
<!DOCTYPE svg PUBLIC "-//W3C//DTD SVG 20010904//EN"
 "http://www.w3.org/TR/2001/REC-SVG-20010904/DTD/svg10.dtd">
<svg version="1.0" xmlns="http://www.w3.org/2000/svg"
 width="500.000000pt" height="500.000000pt" viewBox="0 0 500.000000 500.000000"
 preserveAspectRatio="xMidYMid meet">
<metadata>
Created by potrace 1.14, written by Peter Selinger 2001-2017
</metadata>
<g transform="translate(0.000000,500.000000) scale(0.100000,-0.100000)"
fill="#000000" stroke="none">
<path d="M449 4246 c-3 -3 -14 -7 -25 -9 -64 -13 -124 -65 -156 -136 -25 -55
-26 -149 -3 -246 9 -38 18 -82 20 -97 2 -15 8 -44 14 -65 5 -21 12 -54 15 -73
3 -19 10 -53 15 -74 6 -22 9 -42 9 -45 0 -3 1 -8 2 -11 2 -6 7 -27 14 -65 12
-60 15 -77 20 -93 3 -9 7 -33 10 -52 3 -19 8 -45 11 -57 10 -43 15 -68 25
-118 5 -27 12 -61 15 -75 3 -14 10 -47 15 -75 10 -50 15 -75 25 -117 3 -13 8
-39 11 -58 3 -19 10 -52 15 -73 6 -21 12 -50 14 -65 7 -45 15 -86 21 -102 3
-8 12 -49 19 -90 8 -41 17 -86 20 -100 3 -14 7 -37 10 -52 2 -15 6 -35 9 -45
3 -10 7 -29 10 -43 3 -14 9 -46 14 -72 5 -27 7 -48 4 -48 -2 0 1 -7 8 -15 7
-8 10 -15 6 -15 -3 0 -2 -10 3 -23 5 -12 12 -44 15 -71 4 -27 9 -53 11 -56 2
-4 7 -22 10 -41 3 -19 8 -45 10 -59 3 -14 7 -34 9 -45 2 -11 14 -65 26 -120
12 -55 27 -131 35 -170 8 -38 16 -81 19 -95 9 -42 15 -73 21 -109 3 -19 8 -37
10 -40 2 -4 6 -25 9 -47 4 -23 11 -56 16 -74 5 -18 7 -37 4 -41 -3 -5 0 -9 7
-9 7 0 10 -2 7 -5 -10 -10 22 -138 47 -190 43 -90 141 -175 240 -210 42 -15
88 -18 280 -19 266 -2 313 5 421 67 70 41 157 153 179 233 9 33 18 65 20 72 5
14 5 14 16 57 4 17 25 100 47 185 22 85 57 220 77 300 20 80 39 152 42 160 3
8 7 24 9 35 2 11 10 45 18 75 8 30 26 98 39 150 14 53 28 107 31 120 6 32 10
46 41 160 14 52 27 104 30 115 27 113 47 193 52 205 3 8 8 29 10 45 3 17 11
37 19 46 8 8 14 20 14 26 0 6 11 18 24 26 23 15 26 15 49 -9 22 -21 67 -139
67 -173 0 -6 6 -30 14 -53 8 -24 16 -54 18 -68 2 -14 6 -29 9 -35 3 -5 11 -37
18 -70 7 -33 17 -71 22 -85 5 -14 11 -36 13 -50 4 -20 38 -149 46 -178 9 -28
30 -114 35 -140 2 -12 6 -26 9 -30 3 -5 7 -19 10 -33 6 -32 17 -75 60 -244 20
-77 38 -149 41 -160 2 -11 9 -36 15 -55 6 -19 15 -53 20 -75 5 -22 14 -58 20
-80 6 -22 13 -49 15 -60 6 -30 11 -48 18 -65 3 -8 11 -41 17 -72 6 -32 16 -60
21 -63 5 -4 9 -12 9 -20 0 -39 98 -148 178 -199 85 -53 141 -62 389 -60 125 1
242 5 258 8 39 8 107 37 123 53 7 7 17 13 22 13 8 0 71 60 102 98 20 25 58
105 64 136 2 11 11 56 20 99 8 42 18 90 21 105 8 41 11 57 13 57 1 0 3 11 6
25 4 29 16 91 20 105 1 6 5 24 8 40 12 62 16 81 21 105 4 14 8 36 11 50 5 28
12 65 18 95 34 162 59 286 62 310 3 17 7 37 10 45 3 8 12 49 19 90 8 41 17 86
20 100 10 44 28 134 39 193 6 29 57 276 62 302 3 11 7 31 10 45 3 14 12 59 21
100 8 41 17 86 19 100 2 14 9 48 15 75 6 28 13 64 16 80 2 17 10 55 18 85 7
30 16 71 19 90 3 19 9 46 12 60 3 14 11 57 18 95 8 39 16 77 19 85 3 8 8 31
10 50 3 19 12 64 20 100 8 36 18 81 21 100 7 46 14 78 20 98 13 41 20 112 19
178 -2 81 -23 129 -82 181 -63 57 -97 63 -355 60 -267 -2 -299 -10 -394 -93
-45 -39 -105 -115 -107 -134 0 -3 -4 -11 -8 -17 -10 -15 -15 -37 -28 -123 -6
-36 -13 -72 -16 -80 -3 -8 -7 -24 -8 -35 -5 -47 -17 -123 -26 -163 -5 -23 -12
-59 -14 -80 -3 -20 -8 -46 -10 -58 -3 -12 -7 -39 -10 -60 -3 -21 -8 -46 -11
-53 -3 -8 -7 -35 -10 -60 -3 -26 -7 -54 -10 -63 -5 -18 -9 -36 -18 -100 -13
-84 -18 -113 -21 -119 -2 -3 -7 -28 -10 -55 -9 -71 -21 -139 -25 -139 -2 0 -6
-23 -14 -85 -3 -25 -8 -56 -11 -70 -3 -14 -8 -42 -11 -63 -33 -222 -96 -236
-150 -32 -26 98 -42 165 -38 165 1 0 -3 12 -11 27 -8 15 -12 30 -9 35 3 4 1
16 -5 25 -5 10 -11 32 -14 48 -3 17 -15 66 -27 110 -12 44 -23 87 -25 95 -2 8
-4 16 -5 18 -2 1 -3 10 -5 20 -1 9 -4 24 -7 32 -3 8 -16 56 -28 105 -12 50
-24 97 -27 105 -3 8 -7 22 -8 30 -1 8 -7 33 -13 55 -10 35 -23 89 -26 105 -1
3 -5 11 -9 18 -5 6 -6 12 -4 12 6 0 3 13 -52 224 -39 151 -67 229 -90 258 -80
99 -149 150 -245 180 -54 17 -87 19 -296 16 l-235 -3 -66 -31 c-89 -43 -168
-118 -213 -203 -20 -38 -36 -77 -36 -87 0 -11 -7 -38 -15 -61 -8 -23 -17 -57
-20 -75 -3 -18 -12 -55 -20 -83 -16 -56 -101 -389 -109 -426 -3 -13 -17 -67
-30 -119 -14 -52 -37 -144 -52 -205 -14 -60 -29 -117 -32 -125 -7 -21 -10 -32
-16 -59 -3 -13 -15 -60 -27 -105 -11 -45 -22 -88 -24 -96 -2 -8 -4 -15 -5 -15
-1 0 -3 -8 -5 -17 -7 -37 -26 -84 -44 -107 l-19 -24 -24 25 c-23 26 -42 83
-54 163 -3 22 -7 51 -10 65 -15 82 -25 140 -30 175 -3 22 -9 56 -14 75 -5 19
-12 58 -16 85 -11 81 -12 90 -14 90 -1 0 -3 9 -5 20 -17 101 -34 204 -38 220
-3 11 -8 42 -11 69 -4 27 -9 52 -10 55 -2 3 -7 29 -10 56 -8 56 -13 88 -21
125 -4 14 -8 34 -9 45 -2 11 -6 36 -10 55 -3 19 -8 52 -11 74 -3 21 -7 41 -9
45 -3 3 -7 27 -11 51 -13 95 -45 160 -110 225 -111 112 -151 123 -437 125
-123 0 -226 -2 -229 -4z"/>
</g>
</svg>
